<?xml version="1.0" encoding="UTF-8" standalone="no"?>
<!DOCTYPE svg PUBLIC "-//W3C//DTD SVG 1.1//EN"
 "http://www.w3.org/Graphics/SVG/1.1/DTD/svg11.dtd">
<!-- Generated by graphviz version 2.44.0 ()
 -->
<!-- Title: D Pages: 1 -->
<svg width="640pt" height="161pt"
 viewBox="0.00 0.00 640.00 161.00" xmlns="http://www.w3.org/2000/svg" xmlns:xlink="http://www.w3.org/1999/xlink">
<g id="graph0" class="graph" transform="scale(1 1) rotate(0) translate(4 157)">
<title>D</title>
<polygon fill="white" stroke="transparent" points="-4,4 -4,-157 636,-157 636,4 -4,4"/>
<text text-anchor="middle" x="316" y="-7.8" font-family="Times,serif" font-size="14.00">Monitoring Servers</text>
<g id="clust1" class="cluster">
<title>cluster_p_0</title>
<polygon fill="none" stroke="black" points="8,-31 8,-145 624,-145 624,-31 8,-31"/>
<text text-anchor="middle" x="316" y="-129.8" font-family="Times,serif" font-size="14.00">Node n</text>
</g>
<g id="clust3" class="cluster">
<title>cluster_gc_1</title>
<polygon fill="none" stroke="black" points="538,-39 538,-114 616,-114 616,-39 538,-39"/>
<text text-anchor="middle" x="577" y="-98.8" font-family="Times,serif" font-size="14.00">M3DB&#45;n</text>
</g>
<g id="clust4" class="cluster">
<title>cluster_gc_2</title>
<polygon fill="none" stroke="black" points="460,-39 460,-114 530,-114 530,-39 460,-39"/>
<text text-anchor="middle" x="495" y="-98.8" font-family="Times,serif" font-size="14.00">ETCD&#45;n</text>
</g>
<g id="clust5" class="cluster">
<title>cluster_gc_3</title>
<polygon fill="none" stroke="black" points="332,-39 332,-114 452,-114 452,-39 332,-39"/>
<text text-anchor="middle" x="392" y="-98.8" font-family="Times,serif" font-size="14.00">Prometheus&#45;n</text>
</g>
<g id="clust6" class="cluster">
<title>cluster_gc_4</title>
<polygon fill="none" stroke="black" points="242,-39 242,-114 324,-114 324,-39 242,-39"/>
<text text-anchor="middle" x="283" y="-98.8" font-family="Times,serif" font-size="14.00">Consul&#45;0</text>
</g>
<!-- node exporter -->
<g id="node1" class="node">
<title>node exporter</title>
<ellipse fill="none" stroke="black" cx="172" cy="-65" rx="59.59" ry="18"/>
<text text-anchor="middle" x="172" y="-61.3" font-family="Times,serif" font-size="14.00">node exporter</text>
</g>
<!-- podman -->
<g id="node2" class="node">
<title>podman</title>
<ellipse fill="none" stroke="black" cx="55" cy="-65" rx="38.99" ry="18"/>
<text text-anchor="middle" x="55" y="-61.3" font-family="Times,serif" font-size="14.00">podman</text>
</g>
<!-- m3db -->
<g id="node3" class="node">
<title>m3db</title>
<ellipse fill="none" stroke="black" cx="577" cy="-65" rx="31.4" ry="18"/>
<text text-anchor="middle" x="577" y="-61.3" font-family="Times,serif" font-size="14.00">m3db</text>
</g>
<!-- etcd -->
<g id="node4" class="node">
<title>etcd</title>
<ellipse fill="none" stroke="black" cx="495" cy="-65" rx="27" ry="18"/>
<text text-anchor="middle" x="495" y="-61.3" font-family="Times,serif" font-size="14.00">etcd</text>
</g>
<!-- prometheus -->
<g id="node5" class="node">
<title>prometheus</title>
<ellipse fill="none" stroke="black" cx="392" cy="-65" rx="51.99" ry="18"/>
<text text-anchor="middle" x="392" y="-61.3" font-family="Times,serif" font-size="14.00">prometheus</text>
</g>
<!-- consul -->
<g id="node6" class="node">
<title>consul</title>
<ellipse fill="none" stroke="black" cx="283" cy="-65" rx="33.29" ry="18"/>
<text text-anchor="middle" x="283" y="-61.3" font-family="Times,serif" font-size="14.00">consul</text>
</g>
</g>
</svg>
